<svg width="20" height="20" viewBox="0 0 20 20" fill="none" xmlns="http://www.w3.org/2000/svg">
<path d="M19.99 10.1871C19.99 9.36871 19.9246 8.76723 19.7819 8.14746H10.2041V11.8483H15.8276C15.7201 12.7673 15.1496 14.1512 13.9349 15.0813L13.9128 15.2051L16.9014 17.4969L17.1176 17.5174C18.9013 15.9057 19.99 13.2197 19.99 10.1871Z" fill="#4285F4"/>
<path d="M10.2041 19.9313C12.9592 19.9313 15.2429 19.0454 17.1176 17.5174L13.9349 15.0813C13.0697 15.6682 11.9436 16.0779 10.2041 16.0779C7.50912 16.0779 5.24823 14.4661 4.39911 12.1917L4.27598 12.2017L1.13003 14.5902L1.08887 14.7051C2.95066 18.3313 6.30325 19.9313 10.2041 19.9313Z" fill="#34A853"/>
<path d="M4.39911 12.1917C4.19598 11.5681 4.07831 10.9033 4.07831 10.2194C4.07831 9.53563 4.19598 8.87085 4.38737 8.24723L4.38186 8.11393L1.19026 5.68457L1.08887 5.73383C0.397541 7.09564 0.0188904 8.6222 0.0188904 10.2194C0.0188904 11.8166 0.397541 13.3432 1.08887 14.7051L4.39911 12.1917Z" fill="#FBBC05"/>
<path d="M10.2041 4.36099C12.2766 4.36099 13.7158 5.2468 14.5659 6.04537L17.4284 3.27603C15.2357 1.24746 12.9592 0.507324 10.2041 0.507324C6.30325 0.507324 2.95066 2.10742 1.08887 5.73383L4.38737 8.24723C5.24823 5.97286 7.50912 4.36099 10.2041 4.36099Z" fill="#EB4335"/>
</svg>